name C:\Users\u0101727\Documents\MyRepositories\paper-ad\trackingsimulations_3d\Results\TrackSim\IK_c12.mot
datacolumns 32
datarows 7
range 3.45000000 3.54600000
endheader
time	pelvis_tilt	pelvis_list	pelvis_rotation	pelvis_tx	pelvis_ty	pelvis_tz	hip_flexion_l	hip_adduction_l	hip_rotation_l	hip_flexion_r	hip_adduction_r	hip_rotation_r	knee_angle_l	knee_angle_r	ankle_angle_l	ankle_angle_r	subtalar_angle_l	subtalar_angle_r	lumbar_extension	lumbar_bending	lumbar_rotation	arm_flex_l	arm_add_l	arm_rot_l	arm_flex_r	arm_add_r	arm_rot_r	elbow_flex_l	elbow_flex_r	pro_sup_l	pro_sup_r	
          3.45000000	         -2.16629846	          4.38311568	          4.40329378	         -0.50813595	          0.94265905	         -0.23002787	         15.05146189	          9.18019037	          3.46365336	         13.63336933	         -1.81387279	         -2.18505266	        -22.14908730	        -65.06474875	          5.23581252	        -12.89353064	          5.73901447	        -13.57131048	         -4.51954563	         -4.06814872	         -3.34189040	         -1.83249621	        -15.69983535	         17.87188658	         -4.80932801	        -16.90995764	         12.13962397	         21.28301430	         23.55137560	         86.51662706	         86.51662706	
          3.46600000	         -2.19541835	          4.16920704	          4.34440828	         -0.48984437	          0.94553982	         -0.23059155	         13.65662955	          8.93334499	          3.80351560	         16.82718661	         -1.89708443	         -2.03452468	        -22.00230071	        -66.35458211	          6.88148114	        -10.74802018	          5.94244635	        -12.84787536	         -4.69755086	         -3.91988565	         -3.82990162	         -1.63334432	        -15.90585947	         17.29231204	         -5.00347026	        -16.82661508	         12.39807296	         22.63032853	         23.04678958	         86.51662706	         86.51662706	
          3.48200000	         -2.17369771	          3.88694955	          4.28257367	         -0.47145643	          0.94821489	         -0.23109811	         12.14279954	          8.59803018	          4.12947563	         19.73841920	         -1.90389514	         -1.95492618	        -21.65540158	        -66.64733596	          8.04861960	         -8.84336206	          6.01263678	        -11.87292322	         -4.88938776	         -3.66803427	         -4.29644585	         -1.42399951	        -16.08934550	         16.78350236	         -5.27284520	        -16.76387413	         12.44769361	         23.94456548	         22.62286888	         86.51662706	         86.51662706	
          3.49800000	         -2.11583068	          3.51935203	          4.32437713	         -0.45295365	          0.95054867	         -0.23171162	         10.56732636	          8.20165447	          4.56972881	         22.31057513	         -1.83598419	         -2.04206861	        -21.19755984	        -65.93809551	          8.77060957	         -7.16948814	          5.85135866	        -10.92563200	         -5.08657098	         -3.28807122	         -4.82955669	         -1.19903796	        -16.25435762	         16.38299629	         -5.63851982	        -16.72163707	         12.20061128	         25.21799928	         22.32720360	         86.51662706	         86.51662706	
          3.51400000	         -2.03669744	          3.10507743	          4.43784806	         -0.43431662	          0.95241937	         -0.23236381	          8.95215912	          7.76072434	          5.06482516	         24.53927586	         -1.73987708	         -2.26247810	        -20.66832177	        -64.29571523	          9.22588774	         -5.57981937	          5.56482852	        -10.19227577	         -5.27773152	         -2.83371532	         -5.39206685	         -0.96483545	        -16.42113308	         16.08017006	         -6.07377019	        -16.68366012	         11.69941342	         26.45956064	         22.11973540	         86.51662706	         86.51662706	
          3.53000000	         -1.94102987	          2.68627657	          4.57913582	         -0.41552462	          0.95374349	         -0.23295627	          7.29861780	          7.28753259	          5.52496887	         26.41722444	         -1.64670004	         -2.56776478	        -20.09204531	        -61.78463682	          9.59804597	         -3.95471422	          5.29980969	         -9.91664603	         -5.46330444	         -2.36463083	         -5.94289222	         -0.72838528	        -16.60664405	         15.84839233	         -6.53396739	        -16.63262424	         11.04454926	         27.66759966	         21.93243090	         86.51662706	         86.51662706	
          3.54600000	         -1.82773110	          2.30117603	          4.72197485	         -0.39654506	          0.95447896	         -0.23343706	          5.59032897	          6.80153022	          5.88805883	         27.92834599	         -1.58512725	         -2.91716220	        -19.46270790	        -58.47388327	          9.98157836	         -2.36482747	          5.16067838	        -10.05916453	         -5.64945890	         -1.93053631	         -6.46281884	         -0.49493195	        -16.81601190	         15.66961050	         -6.98164343	        -16.55784429	         10.33210181	         28.82016936	         21.71173614	         86.51662706	         86.51662706	
